<?xml version="1.0" encoding="utf-8"?>
<!-- Generator: Adobe Illustrator 24.1.2, SVG Export Plug-In . SVG Version: 6.00 Build 0)  -->
<svg version="1.1" id="Слой_1" xmlns="http://www.w3.org/2000/svg" xmlns:xlink="http://www.w3.org/1999/xlink" x="0px" y="0px"
	 viewBox="0 0 184.6 185.4" style="enable-background:new 0 0 184.6 185.4;" xml:space="preserve">
<style type="text/css">
	.st0{fill:#FFFFFF;}
	.st1{fill:#7DC8C1;}
</style>
<rect width="184.6" height="185.4"/>
<path class="st0" d="M119.7,30.3H31.9c-0.8,0-1.5,0.7-1.5,1.5v66.5c0,0.8,0.7,1.5,1.5,1.5h87.8c0.8,0,1.5-0.7,1.5-1.5V31.8
	C121.2,30.9,120.5,30.3,119.7,30.3z M118.2,96.8H33.4V62.4H58L62.1,74c0.2,0.6,0.8,1,1.4,1c0,0,0.1,0,0.1,0c0.7,0,1.2-0.5,1.4-1.2
	l4.8-24.1l3.4,11.9c0.2,0.6,0.8,1.1,1.4,1.1h4l3.8,5.4c0.3,0.4,0.7,0.7,1.3,0.6c0.5,0,1-0.3,1.2-0.7l3.4-5.3H109
	c0.8,0,1.5-0.7,1.5-1.5s-0.7-1.5-1.5-1.5H87.4c-0.5,0-1,0.3-1.3,0.7l-2.7,4.1l-3-4.2c-0.3-0.4-0.7-0.6-1.2-0.6h-3.6l-4.7-16.8
	c-0.2-0.7-0.8-1.1-1.5-1.1c-0.7,0-1.3,0.5-1.4,1.2l-5,24.9l-2.7-7.4c-0.2-0.6-0.8-1-1.4-1H33.4V33.3h84.8V96.8z"/>
<path class="st1" d="M135.9,62.6c1.1-3,1.1-6.7-0.8-10.2c-3-5.6-12-2.9-10.7,6.5c-9.8-11.8-24.6-0.8-14.9,8.6c2.8,2.7,5.7,4,8.4,4.3
	c-18.1,3.1-68.7,1.7-69.8,44.7c0,0-0.2,5.2,1.8,10.8c-1.3,2.2-2.4,4.6-3.2,7.1c-0.9,2.7-1.5,5.7-1.4,8.8c0.1,3.1,0.8,6.2,2.2,8.9
	c1.4,2.7,3.4,5.1,5.7,6.9c2.3,1.8,5,3.1,7.8,3.9c5.5,1.6,11.2,1.2,16.3-0.2c2.6-0.7,5.1-1.6,7.5-2.6c1.2-0.5,2.4-1.2,3.5-1.7
	l1.7-0.8l1.7-0.7c4.5-1.9,9.3-3.2,14.2-3.9c4.9-0.6,9.9-0.5,14.8,0.3c4.9,0.9,9.8,2.4,14.1,5c-4.2-2.8-9-4.8-13.9-6
	c-4.9-1.2-10.1-1.7-15.2-1.4c-5.1,0.3-10.3,1.3-15.1,3l-1.8,0.6l-1.8,0.7L85,156c-0.6,0.2-1.1,0.4-1.7,0.6c-2.3,0.8-4.6,1.4-7,1.8
	c-4.7,0.8-9.5,0.6-13.6-1c-2-0.8-3.9-1.9-5.4-3.3c-1.5-1.4-2.7-3.1-3.4-5c-1.5-3.7-1-7.8,0.7-11.7c0.2-0.5,0.4-0.9,0.7-1.4
	c3.6,11,24,13.9,33.4,12.5c7.5-1.1,17.7-6,23.4-7.8c-4.3-4.8-14.5,0.4-20.6-0.8c16.5-15,14-22.9,22.3-23.5c3.6,3.5,4,8.4,4,8.4
	s6.1-6.6,3-13.7c-0.9-1.9-2.2-3.7-3.8-5.3c7.4-9,18.7-9.7,25-8.1c8,2,22.4,0.1,27.6-6.7C157.9,84.2,159.2,68.4,135.9,62.6z"/>
</svg>
